<svg xmlns="http://www.w3.org/2000/svg" viewBox="0 0 3044 892" preserveAspectRatio="xMidYMid meet" fill="currentColor" role="img" aria-label="Zona 2 Brunch and Run">
<g transform="translate(0.000000,892.000000) scale(0.100000,-0.100000)"
fill="currentColor" stroke="none">
<path d="M8275 8904 c-49 -7 -166 -13 -260 -13 -263 -2 -733 -43 -782 -69 -10
-5 -58 -15 -108 -21 -139 -19 -261 -47 -370 -85 -55 -20 -107 -36 -116 -36
-19 0 -136 -58 -144 -71 -4 -5 -14 -9 -24 -9 -19 0 -135 -74 -192 -124 -20
-17 -56 -44 -79 -61 -51 -36 -229 -245 -268 -314 -15 -27 -49 -87 -75 -133
-51 -86 -97 -204 -97 -248 0 -14 -9 -43 -18 -65 -10 -22 -29 -78 -41 -125 -13
-47 -32 -114 -43 -150 -30 -102 -121 -596 -134 -725 -3 -33 -12 -80 -20 -105
-15 -48 -39 -193 -55 -330 -10 -85 -54 -281 -69 -310 -5 -9 -16 -72 -25 -140
-9 -69 -20 -141 -25 -160 -21 -84 -50 -232 -59 -310 -11 -91 -34 -251 -52
-365 -20 -130 -23 -343 -6 -412 9 -34 19 -93 23 -130 5 -52 18 -91 56 -169 42
-87 61 -117 116 -179 36 -40 188 -176 228 -203 96 -65 189 -122 199 -122 6 0
26 -9 46 -19 20 -11 54 -23 75 -26 22 -4 86 -20 144 -35 127 -34 320 -55 760
-80 230 -14 1371 -13 1575 1 383 26 683 76 920 154 62 20 246 117 401 210 98
59 131 86 212 174 54 57 104 114 112 127 8 12 35 50 59 85 67 96 147 258 191
388 24 72 60 241 69 331 4 36 12 74 18 85 6 11 21 74 33 140 19 111 39 208 91
455 12 52 27 122 35 155 7 33 19 91 24 129 6 39 17 95 25 125 20 80 43 206 51
276 3 33 15 101 25 150 10 50 19 111 19 137 0 26 7 69 16 95 18 52 38 147 54
260 6 40 15 94 21 120 67 320 86 500 70 678 -6 72 -20 159 -30 195 -22 74 -97
257 -115 280 -6 8 -18 27 -25 41 -16 32 -115 148 -156 181 -16 14 -41 29 -55
33 -14 4 -34 15 -45 25 -67 58 -180 107 -400 176 -55 17 -217 48 -335 64 -41
6 -124 17 -185 26 -60 8 -192 19 -292 24 -101 5 -251 14 -335 19 -263 17 -535
19 -633 5z m198 -1415 c34 -11 69 -27 77 -34 8 -7 25 -16 38 -20 45 -13 56
-48 54 -164 -2 -58 -9 -133 -18 -166 -8 -33 -21 -98 -29 -145 -8 -47 -24 -137
-35 -200 -12 -63 -27 -151 -34 -195 -7 -44 -20 -114 -29 -155 -27 -126 -37
-181 -53 -275 -8 -49 -19 -103 -24 -120 -6 -16 -21 -97 -35 -180 -14 -82 -30
-168 -36 -190 -6 -22 -19 -92 -29 -155 -29 -183 -49 -275 -70 -322 -42 -93
-141 -188 -236 -224 -93 -36 -387 -21 -471 24 -55 30 -93 120 -93 219 0 72 25
250 51 361 10 45 19 100 19 122 0 40 10 95 56 310 52 240 63 297 73 365 32
216 65 389 92 484 11 35 19 87 19 116 0 29 9 81 20 115 11 34 20 71 20 80 0
68 74 224 132 277 86 79 396 121 541 72z"/>
<path d="M26875 8910 c-22 -4 -164 -8 -315 -8 -312 1 -631 -24 -865 -66 -77
-14 -165 -28 -195 -31 -57 -7 -206 -51 -227 -67 -6 -5 -38 -13 -70 -18 -94
-13 -305 -117 -463 -228 -208 -146 -224 -159 -303 -251 -153 -177 -218 -272
-289 -418 -37 -78 -68 -148 -68 -156 0 -8 -14 -66 -31 -128 -44 -162 -72 -288
-99 -444 -12 -73 -1 -149 27 -177 25 -24 71 -26 1119 -28 546 -1 798 2 812 9
39 21 70 70 82 128 6 32 21 103 32 158 11 55 31 124 44 153 28 59 94 130 169
181 43 29 63 35 140 43 137 14 215 8 254 -22 134 -103 147 -129 137 -282 -5
-77 -12 -108 -34 -150 -30 -61 -90 -146 -136 -196 -30 -33 -94 -72 -116 -72
-7 0 -38 -15 -70 -34 -61 -36 -181 -91 -285 -131 -33 -13 -107 -42 -165 -65
-58 -22 -132 -50 -165 -61 -33 -12 -156 -59 -272 -105 -117 -46 -216 -84 -219
-84 -8 0 -103 -43 -146 -66 -14 -8 -32 -14 -39 -14 -13 0 -81 -29 -131 -56
-15 -8 -57 -26 -93 -39 -78 -30 -149 -65 -200 -99 -20 -14 -59 -32 -87 -42
-29 -9 -78 -32 -109 -50 -32 -19 -60 -34 -64 -34 -14 0 -241 -164 -323 -233
-46 -40 -103 -86 -126 -103 -69 -53 -264 -269 -298 -331 -18 -33 -54 -98 -80
-144 -77 -138 -117 -235 -143 -347 -14 -59 -30 -125 -35 -147 -22 -87 -49
-234 -60 -320 -6 -49 -19 -130 -30 -180 -11 -49 -29 -135 -41 -189 -11 -54
-23 -133 -26 -175 l-6 -76 43 -43 c23 -23 52 -42 64 -43 11 0 1066 0 2343 0
1626 1 2330 4 2350 12 61 23 89 55 110 126 28 93 63 245 63 274 0 13 7 49 15
79 8 30 19 100 25 155 6 55 17 132 26 170 41 193 58 266 76 325 10 36 22 110
25 165 6 117 -4 139 -72 156 -25 6 -475 11 -1173 13 -755 3 -1137 7 -1144 14
-14 14 26 39 114 68 40 14 82 29 93 34 57 26 146 60 156 60 7 0 30 9 53 19 85
41 213 90 261 102 27 7 61 18 75 26 14 7 32 13 40 13 15 0 99 30 155 56 45 20
115 44 160 55 71 17 220 73 280 105 112 61 277 143 375 186 63 28 133 66 155
84 22 18 81 53 130 79 55 28 99 58 112 77 12 17 36 39 53 50 50 30 222 210
285 298 148 206 252 404 285 540 6 25 17 63 25 85 52 154 77 399 64 647 -7
139 -13 188 -32 248 -72 222 -124 316 -276 493 -68 79 -91 99 -147 126 -37 17
-85 44 -108 60 -22 16 -61 38 -84 50 -50 25 -336 121 -361 121 -9 0 -43 7 -76
15 -79 21 -312 50 -510 65 -88 6 -182 16 -210 20 -83 15 -168 19 -210 10z"/>
<path d="M1152 8783 c-18 -6 -43 -19 -54 -30 -28 -25 -58 -87 -58 -120 0 -15
-7 -50 -15 -77 -8 -26 -21 -85 -30 -130 -8 -44 -24 -133 -35 -196 -11 -63 -34
-167 -50 -230 -16 -63 -38 -164 -49 -225 -60 -324 -57 -289 -38 -349 10 -29
25 -60 34 -67 13 -12 182 -14 979 -14 728 0 966 -3 975 -12 16 -16 5 -42 -22
-52 -22 -7 -137 -110 -411 -366 -77 -71 -165 -150 -196 -173 -32 -24 -115 -97
-187 -161 -71 -65 -166 -149 -210 -188 -44 -39 -98 -90 -120 -113 -22 -23 -60
-56 -85 -71 -24 -16 -78 -62 -120 -102 -41 -39 -107 -99 -145 -132 -136 -117
-171 -150 -260 -236 -49 -47 -157 -146 -240 -219 -231 -205 -460 -428 -519
-505 -42 -55 -55 -81 -60 -120 -4 -27 -13 -70 -21 -95 -7 -25 -16 -65 -20 -90
-3 -25 -12 -74 -20 -110 -7 -36 -19 -94 -25 -130 -29 -157 -49 -253 -77 -365
-17 -66 -35 -160 -41 -210 -5 -49 -15 -91 -21 -93 -6 -2 -11 -27 -11 -60 l0
-57 61 -29 61 -28 2276 -2 2277 -1 46 27 c80 47 106 85 114 170 4 40 15 116
25 168 10 52 21 115 25 140 4 25 13 67 21 94 8 27 14 70 14 95 0 44 29 211 51
296 45 176 63 402 35 440 -30 42 -106 45 -1096 44 -514 0 -941 -4 -949 -8 -18
-12 -41 -3 -41 16 0 17 57 88 118 147 24 22 65 61 91 86 25 25 78 72 116 105
39 32 93 79 121 105 27 25 86 77 129 115 93 82 225 215 225 227 0 4 17 16 38
27 20 10 76 57 123 104 48 46 93 88 102 93 8 5 52 43 97 84 45 41 94 80 109
86 14 6 40 28 56 49 44 54 131 135 329 306 22 19 55 52 75 74 61 67 104 103
156 130 30 16 92 69 155 133 94 96 151 148 259 238 19 16 95 88 168 161 l134
132 5 68 c6 82 30 252 49 348 7 39 20 104 28 145 8 41 19 89 25 105 6 17 21
86 32 155 12 69 28 152 37 185 34 136 27 198 -28 251 l-30 29 -2227 0 c-1657
0 -2235 -3 -2260 -12z"/>
<path d="M12320 8790 c-967 -6 -885 1 -949 -72 -30 -35 -34 -47 -46 -150 -8
-62 -19 -129 -24 -148 -6 -19 -16 -73 -21 -120 -6 -47 -17 -110 -24 -140 -34
-137 -47 -200 -56 -271 -9 -79 -30 -176 -55 -264 -14 -49 -23 -94 -65 -320
-10 -55 -23 -125 -29 -155 -5 -30 -19 -111 -31 -180 -11 -69 -27 -156 -36
-195 -28 -133 -45 -220 -59 -308 -7 -49 -18 -110 -24 -135 -6 -26 -18 -87 -27
-137 -9 -49 -24 -130 -34 -180 -10 -49 -23 -117 -30 -150 -6 -33 -29 -134 -50
-225 -21 -91 -44 -196 -50 -235 -6 -38 -20 -124 -31 -190 -11 -66 -24 -156
-29 -200 -5 -44 -18 -114 -29 -155 -11 -41 -24 -106 -30 -145 -18 -128 -41
-257 -55 -309 -26 -95 -55 -241 -64 -321 -5 -44 -20 -140 -32 -213 -27 -156
-24 -173 38 -215 l43 -29 862 0 c501 0 881 4 908 9 26 6 62 22 82 37 32 24 36
34 47 99 6 40 18 106 26 147 9 41 24 127 35 190 10 63 23 138 29 165 6 28 15
86 20 130 11 106 42 301 80 510 7 33 16 96 21 140 11 90 30 189 53 285 8 36
20 99 26 140 7 41 18 104 25 140 8 36 19 109 25 163 5 54 17 114 25 134 8 19
15 59 15 87 0 60 14 90 30 66 5 -8 10 -21 10 -28 0 -7 14 -43 31 -80 18 -37
38 -87 45 -112 7 -25 33 -101 58 -170 54 -151 57 -160 95 -280 37 -119 42
-133 81 -253 18 -54 38 -126 45 -160 8 -34 27 -100 44 -147 63 -173 150 -436
162 -490 4 -19 29 -93 54 -165 26 -71 53 -150 60 -175 7 -25 19 -61 28 -80 31
-72 57 -146 57 -160 0 -29 39 -78 87 -112 l48 -33 1005 2 c553 1 1015 2 1027
3 12 0 35 11 51 25 38 32 72 32 102 0 l23 -25 955 0 c1069 0 992 -5 1056 74
19 22 44 66 56 96 11 30 30 73 40 95 10 22 27 60 38 85 11 25 34 75 51 113 64
139 108 244 125 302 10 33 29 81 42 106 13 26 24 53 24 61 0 43 -1 43 717 40
632 -3 683 -4 692 -20 5 -9 12 -100 16 -202 3 -102 11 -228 16 -280 6 -52 16
-163 23 -246 7 -83 16 -156 20 -162 9 -15 59 -42 100 -53 16 -5 446 -9 955 -9
l925 -1 35 29 c59 46 72 83 66 182 -16 268 -50 578 -110 1010 -8 58 -20 172
-25 254 -6 82 -13 153 -16 157 -2 4 -13 89 -24 190 -11 100 -23 185 -25 189
-3 4 -14 102 -26 216 -11 115 -24 247 -29 294 -4 47 -15 137 -24 200 -8 63
-25 210 -36 325 -12 116 -26 251 -31 300 -13 124 -24 234 -49 490 -11 121 -27
272 -35 335 -8 63 -17 147 -20 185 -6 80 -29 245 -52 385 -9 52 -19 147 -23
210 -7 131 -18 156 -85 192 l-40 21 -1446 -1 -1446 -2 -47 -26 c-64 -36 -123
-117 -196 -270 -34 -71 -75 -156 -91 -190 -16 -33 -29 -64 -29 -67 0 -11 -67
-152 -191 -402 -60 -121 -112 -237 -116 -258 -3 -20 -9 -40 -14 -43 -4 -2 -28
-46 -52 -97 -24 -51 -58 -109 -76 -131 -17 -21 -31 -45 -31 -52 0 -7 -11 -34
-24 -61 -31 -62 -71 -151 -103 -233 -14 -36 -31 -72 -38 -80 -7 -8 -23 -39
-36 -69 -13 -30 -61 -128 -106 -219 -46 -90 -83 -168 -83 -173 0 -5 -34 -80
-76 -166 -42 -86 -80 -166 -85 -177 -5 -12 -20 -39 -34 -61 -14 -22 -34 -58
-44 -81 -11 -23 -30 -65 -44 -95 -14 -30 -39 -88 -57 -129 -38 -90 -143 -311
-167 -355 -7 -11 -24 -45 -38 -75 -15 -30 -33 -66 -41 -80 -7 -14 -25 -52 -40
-85 -14 -33 -32 -73 -39 -90 -7 -16 -47 -100 -88 -185 -41 -85 -78 -165 -82
-178 -4 -13 -24 -54 -46 -92 -21 -38 -39 -73 -39 -77 0 -4 -20 -48 -44 -97
-49 -102 -88 -186 -136 -296 -18 -41 -38 -84 -45 -95 -7 -11 -15 -32 -19 -47
-3 -15 -15 -32 -26 -38 -18 -10 -20 -8 -20 27 0 21 9 72 21 113 11 41 24 113
28 160 5 47 18 123 29 170 12 47 28 119 36 160 19 94 32 154 44 205 16 63 49
229 73 365 62 354 98 547 119 630 10 41 21 98 24 125 7 56 28 167 56 300 38
187 61 304 80 425 11 69 27 166 36 215 8 50 19 126 24 170 5 44 13 92 19 107
5 14 15 55 21 90 11 64 24 124 60 280 11 48 20 102 20 119 0 17 9 70 19 118
11 47 33 163 51 256 17 94 35 184 40 200 5 17 14 73 20 125 15 129 25 184 44
253 22 81 20 147 -6 201 -12 25 -29 48 -37 52 -9 3 -419 5 -911 4 l-895 -1
-40 -24 c-66 -39 -103 -139 -125 -337 -5 -54 -17 -123 -25 -155 -8 -31 -15
-69 -15 -83 0 -14 -7 -52 -15 -85 -9 -32 -22 -104 -30 -159 -25 -171 -45 -290
-55 -321 -5 -16 -12 -52 -15 -80 -3 -27 -14 -99 -25 -160 -10 -60 -23 -150
-28 -200 -5 -49 -16 -124 -25 -165 -33 -158 -47 -247 -47 -298 0 -29 -9 -87
-19 -130 -11 -42 -21 -86 -23 -97 -6 -36 -31 -22 -44 25 -7 25 -24 74 -37 110
-36 93 -86 222 -97 245 -5 11 -16 45 -24 75 -8 30 -24 87 -36 125 -12 39 -32
110 -46 158 -13 48 -32 109 -43 135 -10 26 -31 88 -46 137 -15 50 -35 113 -46
140 -21 58 -84 250 -123 380 -15 50 -34 105 -42 123 -8 18 -14 39 -14 47 0 8
-14 61 -31 117 -17 57 -36 128 -43 158 -32 137 -82 253 -127 296 l-30 29 -207
0 c-114 0 -601 -2 -1082 -5z m7194 -1492 c3 -18 8 -85 11 -148 3 -63 10 -149
15 -190 32 -279 58 -527 65 -635 3 -49 12 -126 20 -170 18 -104 25 -209 15
-226 -7 -10 -83 -13 -356 -13 -305 -1 -348 1 -357 15 -10 16 14 83 129 354 25
61 53 130 61 155 9 25 22 54 30 65 7 11 13 25 13 33 0 7 8 32 19 55 10 23 28
69 41 102 12 33 31 78 41 101 11 23 19 45 19 49 0 4 8 26 19 49 39 86 54 124
87 213 18 51 45 117 60 145 44 88 60 99 68 46z"/>
<path d="M29670 8794 c-130 -43 -241 -104 -304 -169 -90 -92 -154 -251 -163
-400 -6 -102 17 -212 64 -312 28 -59 125 -163 178 -190 17 -9 32 -19 35 -22
13 -17 123 -60 195 -77 193 -45 357 -5 515 128 143 121 201 219 220 371 15
124 -15 286 -69 366 -10 14 -31 46 -47 70 -44 67 -150 147 -261 197 l-98 44
-125 -1 c-69 0 -132 -3 -140 -5z m201 -108 c42 -7 87 -21 100 -30 13 -9 30
-16 38 -16 21 0 111 -63 152 -107 106 -113 151 -243 129 -376 -14 -83 -38
-149 -82 -229 -22 -38 -99 -128 -110 -128 -7 0 -20 -8 -30 -17 -21 -19 -80
-38 -168 -54 -74 -15 -250 -6 -281 14 -13 8 -37 18 -52 21 -29 7 -167 137
-167 157 0 6 -8 23 -19 37 -10 15 -29 57 -41 94 -19 58 -22 82 -18 165 5 100
11 118 71 243 25 50 47 76 97 117 36 29 81 58 100 64 19 6 41 16 48 22 11 9
110 33 147 36 6 0 44 -5 86 -13z"/>
<path d="M29562 8243 c0 -151 -4 -283 -7 -293 -8 -26 25 -57 71 -66 31 -6 40
-3 55 15 15 18 17 36 14 104 -5 101 -2 113 36 126 41 14 56 5 104 -64 64 -91
113 -142 161 -165 47 -23 74 -21 74 5 0 8 -25 53 -55 99 -30 46 -55 90 -55 99
0 9 19 35 43 59 34 34 46 56 57 101 12 51 11 64 -4 112 -20 63 -66 108 -128
126 -24 7 -114 13 -204 14 l-160 2 -2 -274z m350 127 c26 -32 18 -87 -16 -117
-25 -21 -123 -39 -177 -31 -23 3 -24 6 -25 81 0 61 3 80 15 88 9 5 54 8 99 7
75 -3 86 -5 104 -28z"/>
<path d="M19055 2144 c-13 -14 -15 -71 -15 -430 1 -228 -2 -419 -5 -425 -4 -5
-40 22 -83 63 -137 130 -323 204 -507 201 -241 -4 -425 -90 -570 -267 -28 -35
-59 -81 -69 -102 -9 -22 -21 -47 -27 -57 -5 -9 -21 -52 -35 -95 -24 -70 -27
-93 -28 -242 -1 -156 0 -170 28 -252 15 -48 47 -119 70 -157 60 -101 174 -215
256 -256 19 -9 42 -23 50 -29 37 -29 275 -88 355 -88 49 -1 219 42 261 65 122
67 156 91 220 154 41 41 79 71 85 67 6 -4 10 -48 9 -113 -1 -58 -1 -111 -1
-118 2 -28 130 -44 150 -19 9 10 11 278 10 1055 -1 959 -2 1042 -17 1050 -29
15 -120 12 -137 -5z m-385 -767 c177 -84 293 -217 355 -405 14 -44 16 -79 13
-195 -5 -162 -20 -228 -75 -332 -29 -55 -115 -153 -144 -165 -16 -7 -29 -16
-29 -19 0 -10 -79 -45 -160 -73 -92 -31 -220 -30 -315 1 -135 46 -173 67 -248
143 -123 125 -175 249 -184 439 -5 100 -3 126 16 190 68 232 248 402 466 439
84 14 253 2 305 -23z"/>
<path d="M11542 2142 c-10 -7 -12 -224 -10 -1053 l3 -1044 60 -6 c109 -10 100
-49 102 424 2 227 8 446 13 487 21 148 101 277 230 371 71 53 115 68 222 78
287 27 435 -61 535 -319 15 -40 17 -99 21 -535 3 -425 5 -492 18 -502 19 -14
124 -6 139 11 7 7 8 184 5 511 l-5 500 -27 87 c-15 49 -43 112 -62 140 -41 63
-117 148 -132 148 -6 0 -19 9 -29 20 -10 11 -23 20 -29 20 -6 0 -24 7 -41 16
-71 37 -181 56 -303 51 -115 -5 -204 -19 -226 -36 -6 -4 -29 -14 -51 -21 -53
-17 -132 -69 -204 -136 -32 -29 -63 -54 -69 -54 -7 0 -11 138 -11 416 -1 230
-4 421 -7 425 -7 11 -125 11 -142 1z"/>
<path d="M2899 2029 c-9 -5 -12 -231 -10 -990 0 -541 5 -987 10 -992 4 -4 278
-6 607 -4 560 4 603 5 659 23 135 44 243 117 306 208 53 76 70 136 76 258 5
90 2 117 -17 180 -12 40 -33 93 -48 118 -49 85 -181 197 -255 215 -34 9 -35
37 -2 62 13 10 39 29 57 42 46 33 102 107 134 177 26 55 28 68 28 189 0 113
-3 137 -22 180 -13 28 -27 57 -32 65 -5 8 -18 31 -29 50 -26 48 -134 134 -206
164 -18 8 -91 26 -162 41 l-128 26 -477 -2 c-262 -1 -482 -5 -489 -10z m1102
-178 c156 -52 193 -81 254 -199 26 -51 27 -57 22 -160 -6 -130 -28 -179 -112
-253 -67 -59 -79 -65 -164 -91 -61 -19 -99 -21 -492 -25 -357 -4 -427 -2 -437
9 -12 15 -19 719 -7 738 4 6 163 10 429 10 l422 0 85 -29z m-16 -882 c63 -6
114 -17 138 -29 21 -11 43 -20 49 -20 17 0 90 -51 113 -79 69 -85 99 -190 89
-316 -8 -103 -29 -149 -97 -217 -46 -46 -67 -59 -135 -82 -121 -40 -194 -45
-642 -46 -332 -1 -415 1 -426 12 -15 15 -17 66 -15 463 1 163 5 297 11 305 8
13 61 16 342 20 363 5 423 4 573 -11z"/>
<path d="M20612 2028 c-17 -17 -17 -1974 -1 -1984 19 -11 122 -11 148 0 l23
10 -7 307 -7 306 22 16 c19 13 69 16 346 17 178 0 330 3 338 6 8 3 22 -3 30
-13 29 -34 131 -172 176 -238 25 -36 68 -95 95 -132 61 -81 107 -144 160 -217
45 -63 52 -66 150 -69 62 -2 70 0 73 17 2 11 -2 24 -9 30 -18 14 -85 104 -164
220 -57 84 -164 231 -264 365 -45 60 -50 79 -23 87 26 9 133 63 163 82 114 75
123 83 183 170 53 76 75 142 88 257 28 246 -29 425 -180 566 -90 84 -209 150
-307 169 -33 7 -73 17 -90 22 -45 16 -928 21 -943 6z m967 -169 c185 -53 290
-136 354 -279 17 -39 20 -67 21 -200 1 -140 -1 -160 -22 -207 -35 -81 -75
-135 -139 -185 -156 -122 -222 -136 -678 -140 -176 -2 -326 1 -332 5 -10 6
-13 119 -13 506 0 524 -1 514 44 522 11 2 170 3 355 1 308 -2 342 -4 410 -23z"/>
<path d="M10460 1553 c-50 -8 -155 -35 -174 -45 -10 -5 -36 -16 -57 -23 -56
-20 -166 -95 -230 -156 -81 -78 -128 -156 -179 -299 -21 -58 -24 -83 -24 -235
-1 -152 2 -178 23 -245 13 -41 36 -100 52 -130 35 -69 128 -186 177 -222 159
-118 220 -144 392 -169 128 -19 140 -19 225 -4 134 24 211 53 293 109 67 45
172 153 172 175 0 17 -35 48 -67 61 -44 17 -78 6 -100 -31 -25 -42 -126 -116
-176 -129 -23 -6 -59 -18 -80 -26 -61 -23 -216 -20 -312 6 -212 58 -348 190
-409 395 -22 75 -26 110 -26 208 0 82 5 129 15 154 8 19 15 44 15 54 0 26 57
135 100 189 47 61 107 114 150 134 19 8 42 20 50 25 8 5 46 19 84 31 55 18 95
23 185 23 101 0 124 -3 182 -25 84 -33 130 -62 201 -127 31 -28 65 -51 77 -51
37 0 101 47 101 74 0 26 -105 126 -186 178 -119 77 -337 123 -474 101z"/>
<path d="M5558 1535 c-68 -15 -160 -52 -208 -83 -53 -34 -127 -109 -140 -143
-8 -18 -20 -29 -32 -29 -19 0 -20 5 -15 115 6 114 6 115 -19 131 -17 12 -38
15 -69 12 -82 -10 -76 57 -70 -757 5 -660 7 -727 22 -738 21 -16 115 -17 131
-1 9 9 12 116 12 420 0 474 8 546 76 677 82 156 226 249 395 255 48 1 73 7 80
17 13 21 11 113 -3 127 -15 15 -84 13 -160 -3z"/>
<path d="M8615 1540 c-11 -5 -33 -9 -49 -9 -70 -2 -274 -130 -319 -201 -18
-28 -53 -48 -64 -36 -3 3 -6 55 -5 116 1 98 -1 111 -18 120 -24 13 -96 13
-121 0 -19 -10 -19 -29 -19 -745 l0 -735 23 -5 c13 -4 50 -5 82 -3 l60 3 6
465 5 465 28 75 c16 41 34 82 42 91 8 8 14 20 14 25 0 5 29 42 64 80 50 55 83
80 143 110 l78 39 173 0 c118 0 175 -4 180 -11 4 -7 25 -19 47 -28 56 -24 149
-119 176 -180 59 -136 59 -141 59 -653 0 -539 -9 -493 94 -487 32 2 61 5 63 8
8 8 2 991 -6 1031 -33 157 -60 217 -129 283 -111 107 -171 142 -289 173 -81
20 -278 26 -318 9z"/>
<path d="M14630 1544 c-100 -20 -164 -36 -220 -57 -154 -56 -258 -125 -246
-162 7 -24 80 -105 93 -105 5 0 38 23 72 50 34 28 67 50 73 50 6 0 19 7 29 16
10 9 32 20 51 24 18 5 53 16 78 26 35 13 78 17 190 17 130 0 149 -2 187 -21
23 -12 48 -22 55 -22 24 0 89 -54 124 -103 39 -53 59 -114 74 -217 12 -90 3
-149 -24 -155 -11 -3 -165 -6 -341 -8 -344 -4 -373 -8 -498 -67 -59 -28 -164
-129 -173 -167 -4 -15 -14 -38 -22 -51 -10 -16 -15 -54 -15 -130 -1 -91 2
-114 21 -157 73 -161 183 -242 369 -270 54 -9 119 -20 145 -26 36 -8 52 -7 75
4 15 8 60 19 100 26 104 16 215 71 286 143 32 32 65 58 72 58 11 0 15 -23 17
-97 l3 -98 60 -6 c104 -10 95 -61 95 529 0 508 -1 519 -24 607 -25 97 -73 183
-136 241 -48 45 -163 100 -235 114 -65 12 -294 22 -335 14z m554 -803 c10 -9
12 -39 9 -134 -4 -116 -6 -125 -40 -195 -55 -111 -147 -186 -283 -229 -67 -22
-89 -24 -210 -21 -124 3 -140 6 -194 32 -72 35 -123 86 -160 160 -24 48 -28
65 -24 120 8 137 127 244 308 280 52 10 580 -1 594 -13z"/>
<path d="M16548 1545 c-3 -3 -33 -10 -66 -15 -35 -6 -97 -28 -149 -54 -72 -37
-102 -59 -164 -125 -42 -44 -79 -78 -82 -75 -3 4 -3 57 0 118 5 97 4 113 -11
125 -23 19 -127 16 -142 -4 -16 -22 -19 -1452 -3 -1471 15 -18 132 -19 147 -1
7 9 12 159 15 447 3 257 9 460 15 497 13 73 80 205 126 251 95 96 194 145 327
162 88 12 219 -3 294 -34 74 -30 163 -114 200 -190 56 -115 58 -139 56 -646
-3 -381 -1 -468 11 -477 18 -15 120 -23 141 -12 16 9 17 48 17 492 0 400 -3
492 -15 537 -8 30 -18 71 -21 90 -22 128 -164 285 -310 342 -70 28 -189 48
-287 48 -51 0 -96 -2 -99 -5z"/>
<path d="M22645 1544 c-11 -3 -25 -12 -30 -19 -8 -9 -10 -172 -8 -502 3 -411
6 -499 20 -558 27 -117 92 -227 176 -298 65 -56 198 -127 237 -127 16 0 49 -6
72 -14 55 -18 148 -28 162 -17 6 4 45 13 86 20 140 22 299 122 373 234 10 15
24 27 32 27 12 0 15 -24 17 -122 l3 -122 37 -8 c20 -4 55 -4 79 0 l43 7 4 735
c4 696 3 735 -14 747 -23 16 -136 17 -152 1 -9 -9 -12 -121 -12 -442 0 -444
-6 -526 -40 -602 -11 -24 -20 -46 -20 -49 0 -25 -144 -185 -166 -185 -6 0 -22
-9 -36 -19 -68 -54 -311 -74 -438 -37 -36 11 -78 29 -95 40 -43 28 -107 99
-143 160 -45 73 -51 161 -49 685 1 298 -1 439 -9 449 -11 15 -92 25 -129 16z"/>
<path d="M25095 1535 c-22 -8 -50 -14 -62 -14 -20 -1 -121 -54 -180 -96 -15
-11 -56 -49 -90 -85 -34 -35 -65 -61 -69 -57 -4 4 -6 58 -5 120 3 136 -1 142
-86 135 -39 -3 -60 -10 -69 -23 -12 -15 -14 -149 -14 -734 0 -394 4 -722 8
-729 10 -15 128 -23 153 -11 14 7 16 53 17 432 0 272 5 446 12 488 7 37 31
104 58 157 55 112 124 180 242 239 73 37 78 38 204 41 112 3 138 1 200 -19
112 -36 186 -100 235 -203 60 -125 61 -139 61 -655 l0 -471 26 -10 c30 -12
131 -2 141 14 5 6 6 241 3 521 -5 553 -3 527 -64 669 -34 80 -159 197 -276
256 -90 46 -349 66 -445 35z"/>
<path d="M7292 1528 c-9 -9 -12 -116 -12 -420 0 -378 -2 -416 -22 -516 -11
-59 -29 -119 -40 -134 -10 -14 -18 -31 -18 -36 0 -24 -94 -132 -147 -169 -102
-72 -269 -99 -415 -68 -90 19 -150 46 -208 95 -55 46 -80 82 -118 172 l-26 63
-4 495 c-2 327 -7 499 -14 507 -14 17 -130 17 -146 1 -9 -9 -12 -125 -12 -462
0 -457 7 -597 33 -638 8 -13 18 -36 21 -52 15 -64 119 -191 202 -247 51 -35
156 -79 188 -79 17 -1 66 -7 109 -15 82 -14 88 -14 286 28 95 19 226 114 284
205 23 35 31 41 42 32 11 -9 14 -39 13 -123 0 -92 3 -113 16 -123 20 -14 116
-16 133 -2 10 8 13 176 13 732 0 828 7 766 -89 766 -31 0 -62 -5 -69 -12z"/>
</g>
</svg>
